<svg width="66" height="66" viewBox="0 0 66 66" fill="none" xmlns="http://www.w3.org/2000/svg">
<path d="M47.1919 33.6619L32.6023 45.3988L18.0399 33.2272C17.7652 32.9989 17.4482 32.8269 17.107 32.7211C16.7658 32.6152 16.4071 32.5776 16.0514 32.6104C15.6957 32.6432 15.3499 32.7458 15.0338 32.9122C14.7177 33.0786 14.4375 33.3057 14.2091 33.5804C13.9808 33.8551 13.8088 34.1722 13.703 34.5133C13.5972 34.8545 13.5596 35.2132 13.5924 35.569C13.6252 35.9247 13.7277 36.2705 13.8941 36.5865C14.0606 36.9026 14.2876 37.1829 14.5623 37.4112L30.8635 50.9955C31.3497 51.3951 31.9594 51.6136 32.5887 51.6136C33.218 51.6136 33.8278 51.3951 34.3139 50.9955L50.6151 37.8731C50.8942 37.6489 51.1263 37.3717 51.2979 37.0575C51.4695 36.7434 51.5774 36.3984 51.6152 36.0424C51.6531 35.6864 51.6203 35.3264 51.5186 34.9832C51.4169 34.64 51.2483 34.3202 51.0227 34.0423C50.7965 33.7652 50.5179 33.5355 50.2027 33.3663C49.8876 33.1972 49.5422 33.0919 49.1863 33.0566C48.8303 33.0212 48.471 33.0565 48.1287 33.1604C47.7865 33.2643 47.4681 33.4347 47.1919 33.6619Z" fill="black"/>
<path d="M30.8635 31.9775C31.3496 32.3771 31.9594 32.5955 32.5887 32.5955C33.218 32.5955 33.8278 32.3771 34.3139 31.9775L50.6151 18.855C50.8942 18.6308 51.1262 18.3537 51.2979 18.0395C51.4695 17.7253 51.5773 17.3804 51.6152 17.0244C51.6531 16.6684 51.6202 16.3084 51.5185 15.9652C51.4168 15.6219 51.2483 15.3022 51.0226 15.0243C50.7984 14.7452 50.5213 14.5131 50.2071 14.3415C49.8929 14.1699 49.5479 14.062 49.192 14.0241C48.836 13.9863 48.476 14.0191 48.1328 14.1208C47.7895 14.2225 47.4698 14.391 47.1919 14.6167L32.6023 26.3807L18.0399 14.2092C17.4851 13.748 16.7698 13.5262 16.0514 13.5924C15.333 13.6587 14.6703 14.0076 14.2091 14.5624C13.748 15.1172 13.5261 15.8325 13.5923 16.5509C13.6586 17.2693 14.0075 17.932 14.5623 18.3932L30.8635 31.9775Z" fill="black"/>
</svg>
